<svg width="223" height="48" viewBox="0 0 223 48" fill="none" xmlns="http://www.w3.org/2000/svg">
<path d="M8.57961 33.2799C7.29961 33.2799 6.17294 32.9666 5.19961 32.3399C4.22628 31.6999 3.46628 30.8199 2.91961 29.6999C2.37294 28.5666 2.09961 27.2599 2.09961 25.7799C2.09961 24.2999 2.37294 22.9999 2.91961 21.8799C3.46628 20.7466 4.22628 19.8666 5.19961 19.2399C6.17294 18.5999 7.29961 18.2799 8.57961 18.2799C9.85961 18.2799 10.9796 18.5999 11.9396 19.2399C12.9129 19.8666 13.6663 20.7399 14.1996 21.8599C14.7463 22.9799 15.0196 24.2866 15.0196 25.7799C15.0196 27.2599 14.7463 28.5666 14.1996 29.6999C13.6663 30.8199 12.9129 31.6999 11.9396 32.3399C10.9796 32.9666 9.85961 33.2799 8.57961 33.2799ZM8.55961 31.4799C9.47961 31.4799 10.2796 31.2466 10.9596 30.7799C11.6396 30.2999 12.1663 29.6332 12.5396 28.7799C12.9129 27.9132 13.0996 26.9132 13.0996 25.7799C13.0996 24.6332 12.9129 23.6332 12.5396 22.7799C12.1663 21.9266 11.6396 21.2666 10.9596 20.7999C10.2796 20.3199 9.48628 20.0799 8.57961 20.0799C7.67294 20.0799 6.87294 20.3199 6.17961 20.7999C5.49961 21.2666 4.96628 21.9266 4.57961 22.7799C4.20628 23.6332 4.01961 24.6332 4.01961 25.7799C4.01961 26.9132 4.20628 27.9132 4.57961 28.7799C4.95294 29.6332 5.47961 30.2999 6.15961 30.7799C6.85294 31.2466 7.65294 31.4799 8.55961 31.4799Z" fill="black"/>
<path d="M17.1768 29.4799C16.6568 29.0932 16.3635 28.5599 16.2968 27.8799C16.9101 27.5199 17.4768 27.0799 17.9968 26.5599V17.4199C17.9968 16.0866 18.2768 15.0599 18.8368 14.3399C19.4101 13.6199 20.2368 13.2666 21.3168 13.2799C22.3035 13.2932 23.0701 13.6666 23.6168 14.3999C24.1768 15.1332 24.4568 16.0866 24.4568 17.2599C24.4568 18.2999 24.3035 19.3732 23.9968 20.4799C23.7035 21.5732 23.2435 22.6666 22.6168 23.7599C22.7368 23.7466 22.8568 23.7399 22.9768 23.7399C23.9768 23.7399 24.7701 24.0932 25.3568 24.7999C25.9568 25.5066 26.2568 26.4532 26.2568 27.6399V29.3599C26.2568 30.1332 26.3501 30.6932 26.5368 31.0399C26.7368 31.3866 27.0635 31.5599 27.5168 31.5599C27.6635 31.5599 27.8235 31.5266 27.9968 31.4599C28.1701 31.3932 28.3501 31.2932 28.5368 31.1599C28.7635 31.2666 28.9501 31.4532 29.0968 31.7199C29.2435 31.9732 29.3101 32.2266 29.2968 32.4799C29.0835 32.7199 28.8101 32.9132 28.4768 33.0599C28.1435 33.2066 27.7835 33.2799 27.3968 33.2799C26.4368 33.2799 25.6968 32.9732 25.1768 32.3599C24.6701 31.7332 24.4168 30.8532 24.4168 29.7199V27.5999C24.4168 26.9199 24.2635 26.3932 23.9568 26.0199C23.6635 25.6332 23.2435 25.4399 22.6968 25.4399C22.1635 25.4399 21.6835 25.6199 21.2568 25.9799C20.8301 26.3266 20.4901 26.8066 20.2368 27.4199C19.9835 28.0332 19.8501 28.7399 19.8368 29.5399V32.9999C19.7035 33.0399 19.5568 33.0732 19.3968 33.0999C19.2368 33.1266 19.0835 33.1399 18.9368 33.1399C18.6301 33.1399 18.3168 33.0932 17.9968 32.9999V28.9199C17.6768 29.1732 17.4035 29.3599 17.1768 29.4799ZM19.7768 17.3999V25.1799C20.7235 23.7932 21.4435 22.4266 21.9368 21.0799C22.4301 19.7199 22.6768 18.4399 22.6768 17.2399C22.6768 16.4932 22.5501 15.9266 22.2968 15.5399C22.0568 15.1399 21.7035 14.9399 21.2368 14.9399C20.2635 14.9399 19.7768 15.7599 19.7768 17.3999Z" fill="black"/>
<path d="M32.4196 33.1399C32.0863 33.1399 31.7796 33.0932 31.4996 32.9999V18.5599C31.6596 18.4932 31.8196 18.4532 31.9796 18.4399C32.1396 18.4266 32.2729 18.4199 32.3796 18.4199C32.5263 18.4199 32.6796 18.4266 32.8396 18.4399C33.0129 18.4532 33.1796 18.4932 33.3396 18.5599L38.2396 28.2599L43.1196 18.5599C43.2929 18.4932 43.4529 18.4532 43.5996 18.4399C43.7463 18.4266 43.8729 18.4199 43.9796 18.4199C44.1263 18.4199 44.2863 18.4266 44.4596 18.4399C44.6329 18.4532 44.7929 18.4932 44.9396 18.5599V32.9999C44.6196 33.0932 44.3063 33.1399 43.9996 33.1399C43.6663 33.1399 43.3596 33.0932 43.0796 32.9999V22.5599L39.0596 30.5399C38.8329 30.6332 38.5596 30.6799 38.2396 30.6799C37.9196 30.6799 37.6396 30.6332 37.3996 30.5399L33.3596 22.5399V32.9999C33.0396 33.0932 32.7263 33.1399 32.4196 33.1399Z" fill="black"/>
<path d="M48.201 33.0799C47.8943 32.9732 47.6277 32.8132 47.401 32.5999C47.1877 32.3732 47.0477 32.1066 46.981 31.7999C47.221 31.5732 47.501 31.2866 47.821 30.9399C48.141 30.5932 48.4543 30.1799 48.761 29.6999C49.0677 29.2066 49.321 28.6532 49.521 28.0399C49.7343 27.4266 49.841 26.7399 49.841 25.9799V23.5599C49.961 23.5199 50.101 23.4866 50.261 23.4599C50.421 23.4332 50.5877 23.4199 50.761 23.4199C51.0677 23.4199 51.3677 23.4666 51.661 23.5599V28.1799C51.661 30.3932 52.4677 31.4999 54.081 31.4999C55.0277 31.4999 55.721 31.1199 56.161 30.3599C56.6143 29.5866 56.841 28.5332 56.841 27.1999V23.5599C57.121 23.4666 57.421 23.4199 57.741 23.4199C58.0743 23.4199 58.381 23.4666 58.661 23.5599V31.8999C58.941 31.6999 59.2277 31.5066 59.521 31.3199C59.8277 31.1199 60.0877 30.9599 60.301 30.8399C60.5677 30.9999 60.7743 31.2066 60.921 31.4599C61.0677 31.7132 61.161 32.0066 61.201 32.3399C61.001 32.4732 60.741 32.6466 60.421 32.8599C60.1143 33.0599 59.801 33.2666 59.481 33.4799C59.161 33.6932 58.8877 33.8732 58.661 34.0199V38.5999C58.661 41.7199 57.521 43.2799 55.241 43.2799C54.1877 43.2799 53.361 42.9666 52.761 42.3399C52.1744 41.7132 51.881 40.8532 51.881 39.7599C51.881 37.3199 53.5477 35.0332 56.881 32.8999V31.9599C56.121 32.8399 55.1077 33.2799 53.841 33.2799C52.001 33.2799 50.7877 32.4532 50.201 30.7999C49.5877 31.8132 48.921 32.5732 48.201 33.0799ZM53.681 39.7199C53.681 40.2932 53.8144 40.7399 54.081 41.0599C54.3477 41.3932 54.7143 41.5599 55.181 41.5599C56.3143 41.5599 56.881 40.5732 56.881 38.5999V35.0199C54.7477 36.5266 53.681 38.0932 53.681 39.7199Z" fill="black"/>
<path d="M65.5196 33.1399C65.2263 33.1399 64.9463 33.0932 64.6796 32.9999L60.8596 18.7799C61.0463 18.6466 61.3196 18.5399 61.6796 18.4599C62.0529 18.3666 62.3729 18.3399 62.6396 18.3799L65.7396 29.9199L69.1196 21.1599C69.3863 21.0666 69.6729 21.0199 69.9796 21.0199C70.2463 21.0199 70.5196 21.0666 70.7996 21.1599L74.1996 29.9599L77.2996 18.3799C77.6463 18.3399 77.9796 18.3666 78.2996 18.4599C78.6196 18.5399 78.8663 18.6466 79.0396 18.7799L75.2596 32.9999C74.9663 33.0932 74.6796 33.1399 74.3996 33.1399C74.1063 33.1399 73.8263 33.0932 73.5596 32.9999L69.9596 23.6999L66.3796 32.9999C66.0863 33.0932 65.7996 33.1399 65.5196 33.1399Z" fill="black"/>
<path d="M78.5105 31.5999C78.8439 31.4932 79.2572 31.3399 79.7505 31.1399C80.2439 30.9266 80.7105 30.7066 81.1505 30.4799C80.7105 29.6266 80.4905 28.6399 80.4905 27.5199C80.4905 26.6932 80.6439 25.9666 80.9505 25.3399C81.2572 24.6999 81.6839 24.1999 82.2305 23.8399C82.7772 23.4666 83.3972 23.2799 84.0905 23.2799C84.6772 23.2799 85.1972 23.4199 85.6505 23.6999C86.1039 23.9666 86.4572 24.3399 86.7105 24.8199C86.9639 25.2999 87.0905 25.8532 87.0905 26.4799C87.0372 28.0799 85.9039 29.5932 83.6905 31.0199C84.1305 31.3932 84.7439 31.5799 85.5305 31.5799C85.9172 31.5799 86.3039 31.5266 86.6905 31.4199C87.0772 31.3132 87.4505 31.1666 87.8105 30.9799C88.0105 31.1266 88.1572 31.3466 88.2505 31.6399C88.3572 31.9199 88.4105 32.1932 88.4105 32.4599C87.9705 32.7132 87.5039 32.9132 87.0105 33.0599C86.5172 33.2066 85.9972 33.2799 85.4505 33.2799H85.4305C84.7372 33.2799 84.0905 33.1599 83.4905 32.9199C82.9039 32.6666 82.4305 32.3199 82.0705 31.8799C81.5772 32.1332 81.0505 32.3799 80.4905 32.6199C79.9439 32.8466 79.4772 33.0199 79.0905 33.1399C78.8772 32.9532 78.7239 32.7332 78.6305 32.4799C78.5239 32.2266 78.4839 31.9332 78.5105 31.5999ZM82.2305 27.3599C82.2305 28.3066 82.3839 29.0932 82.6905 29.7199C83.6105 29.1066 84.2772 28.5599 84.6905 28.0799C85.1039 27.5866 85.3239 27.0532 85.3505 26.4799C85.3505 25.9999 85.2305 25.6266 84.9905 25.3599C84.7639 25.0799 84.4439 24.9399 84.0305 24.9399C83.5106 24.9399 83.0772 25.1732 82.7305 25.6399C82.3972 26.1066 82.2305 26.6799 82.2305 27.3599Z" fill="black"/>
<path d="M95.6474 33.2799C94.2874 33.2799 93.1141 32.9799 92.1274 32.3799C91.1541 31.7799 90.4074 30.9399 89.8874 29.8599C89.3674 28.7799 89.1074 27.5132 89.1074 26.0599C89.1074 24.5132 89.3874 23.1599 89.9474 21.9999C90.5208 20.8266 91.3141 19.9132 92.3274 19.2599C93.3408 18.6066 94.5008 18.2799 95.8074 18.2799C96.8474 18.2799 97.7941 18.4932 98.6474 18.9199C99.5141 19.3332 100.214 19.9132 100.747 20.6599C100.681 20.8999 100.507 21.1466 100.227 21.3999C99.9608 21.6532 99.6941 21.8199 99.4274 21.8999C98.9474 21.2732 98.4008 20.8132 97.7874 20.5199C97.1741 20.2266 96.5141 20.0799 95.8074 20.0799C94.8607 20.0799 94.0274 20.3266 93.3074 20.8199C92.5874 21.3132 92.0274 21.9999 91.6274 22.8799C91.2274 23.7599 91.0274 24.7866 91.0274 25.9599C91.0274 27.0666 91.2074 28.0332 91.5674 28.8599C91.9408 29.6866 92.4808 30.3332 93.1874 30.7999C93.9074 31.2532 94.7808 31.4799 95.8074 31.4799C96.7008 31.4799 97.4741 31.2999 98.1274 30.9399C98.7808 30.5799 99.3741 30.0732 99.9074 29.4199C100.161 29.4999 100.421 29.6466 100.687 29.8599C100.954 30.0732 101.141 30.2866 101.247 30.4999C100.634 31.4066 99.8408 32.0999 98.8674 32.5799C97.9074 33.0466 96.8341 33.2799 95.6474 33.2799Z" fill="black"/>
<path d="M103.052 29.4799C102.532 29.0932 102.238 28.5599 102.172 27.8799C102.785 27.5199 103.352 27.0799 103.872 26.5599V17.4199C103.872 16.0866 104.152 15.0599 104.712 14.3399C105.285 13.6199 106.112 13.2666 107.192 13.2799C108.178 13.2932 108.945 13.6666 109.492 14.3999C110.052 15.1332 110.332 16.0866 110.332 17.2599C110.332 18.2999 110.178 19.3732 109.872 20.4799C109.578 21.5732 109.118 22.6666 108.492 23.7599C108.612 23.7466 108.732 23.7399 108.852 23.7399C109.852 23.7399 110.645 24.0932 111.232 24.7999C111.832 25.5066 112.132 26.4532 112.132 27.6399V29.3599C112.132 30.1332 112.225 30.6932 112.412 31.0399C112.612 31.3866 112.938 31.5599 113.392 31.5599C113.605 31.5599 113.758 31.6466 113.852 31.8199C113.945 31.9799 113.992 32.1866 113.992 32.4399C113.992 32.6932 113.925 32.8932 113.792 33.0399C113.672 33.1999 113.498 33.2799 113.272 33.2799C112.312 33.2799 111.572 32.9732 111.052 32.3599C110.545 31.7332 110.292 30.8532 110.292 29.7199V27.5999C110.292 26.9199 110.138 26.3932 109.832 26.0199C109.538 25.6332 109.118 25.4399 108.572 25.4399C108.038 25.4399 107.558 25.6199 107.132 25.9799C106.705 26.3266 106.365 26.8066 106.112 27.4199C105.858 28.0332 105.725 28.7399 105.712 29.5399V32.9999C105.578 33.0399 105.432 33.0732 105.272 33.0999C105.112 33.1266 104.958 33.1399 104.812 33.1399C104.505 33.1399 104.192 33.0932 103.872 32.9999V28.9199C103.552 29.1732 103.278 29.3599 103.052 29.4799ZM105.652 17.3999V25.1799C106.598 23.7932 107.318 22.4266 107.812 21.0799C108.305 19.7199 108.552 18.4399 108.552 17.2399C108.552 16.4932 108.425 15.9266 108.172 15.5399C107.932 15.1399 107.578 14.9399 107.112 14.9399C106.138 14.9399 105.652 15.7599 105.652 17.3999Z" fill="black"/>
<path d="M113.417 31.5599C113.87 31.5599 114.31 31.3399 114.737 30.8999C115.177 30.4466 115.544 29.8399 115.837 29.0799C115.824 28.8932 115.817 28.7066 115.817 28.5199C115.817 27.5066 116.017 26.6066 116.417 25.8199C116.817 25.0332 117.357 24.4132 118.037 23.9599C118.73 23.5066 119.517 23.2799 120.397 23.2799C120.864 23.2799 121.324 23.3732 121.777 23.5599C122.23 23.7332 122.61 23.9732 122.917 24.2799V23.4599C123.037 23.4199 123.177 23.3866 123.337 23.3599C123.497 23.3332 123.664 23.3199 123.837 23.3199C124.157 23.3199 124.457 23.3666 124.737 23.4599V29.3199C124.737 30.0266 124.844 30.5799 125.057 30.9799C125.284 31.3666 125.657 31.5599 126.177 31.5599C126.404 31.5599 126.557 31.6532 126.637 31.8399C126.717 32.0266 126.757 32.2266 126.757 32.4399C126.757 32.6532 126.697 32.8466 126.577 33.0199C126.47 33.1932 126.29 33.2799 126.037 33.2799C124.73 33.2799 123.857 32.6932 123.417 31.5199C123.03 32.0666 122.544 32.4999 121.957 32.8199C121.384 33.1266 120.744 33.2799 120.037 33.2799C119.264 33.2799 118.577 33.1132 117.977 32.7799C117.39 32.4332 116.91 31.9599 116.537 31.3599C115.71 32.6399 114.624 33.2799 113.277 33.2799C113.104 33.2799 112.964 33.1999 112.857 33.0399C112.75 32.8799 112.697 32.6732 112.697 32.4199C112.697 31.8466 112.937 31.5599 113.417 31.5599ZM117.677 28.5199C117.677 29.4666 117.89 30.2132 118.317 30.7599C118.757 31.2932 119.357 31.5599 120.117 31.5599C120.957 31.5599 121.63 31.2732 122.137 30.6999C122.657 30.1266 122.917 29.3732 122.917 28.4399V26.1999C122.65 25.8399 122.31 25.5532 121.897 25.3399C121.484 25.1132 121.057 24.9999 120.617 24.9999C120.044 24.9999 119.537 25.1532 119.097 25.4599C118.657 25.7666 118.31 26.1866 118.057 26.7199C117.804 27.2399 117.677 27.8399 117.677 28.5199Z" fill="black"/>
<path d="M126.171 31.5599C126.504 31.5599 126.884 31.4599 127.311 31.2599C127.751 31.0599 128.178 30.7199 128.591 30.2399C129.004 29.7599 129.344 29.1132 129.611 28.2999C129.878 27.4732 130.011 26.4399 130.011 25.1999V23.2799H128.531C128.438 23.0666 128.391 22.7999 128.391 22.4799C128.391 22.1599 128.438 21.8932 128.531 21.6799H130.011V18.1399C130.264 18.0466 130.571 17.9999 130.931 17.9999C131.251 17.9999 131.558 18.0466 131.851 18.1399V21.6799H134.831C134.938 21.8932 134.991 22.1599 134.991 22.4799C134.991 22.7999 134.938 23.0666 134.831 23.2799H131.851V29.5599C131.851 29.8799 131.878 30.1932 131.931 30.4999C131.998 30.8066 132.118 31.0666 132.291 31.2799C132.464 31.4799 132.731 31.5799 133.091 31.5799C133.451 31.5799 133.771 31.4866 134.051 31.2999C134.344 31.0999 134.591 30.9066 134.791 30.7199C135.004 30.8799 135.198 31.0799 135.371 31.3199C135.544 31.5599 135.651 31.7999 135.691 32.0399C135.571 32.1866 135.384 32.3599 135.131 32.5599C134.878 32.7466 134.571 32.9132 134.211 33.0599C133.851 33.2066 133.444 33.2799 132.991 33.2799C132.191 33.2799 131.571 33.0599 131.131 32.6199C130.704 32.1799 130.424 31.6066 130.291 30.8999C129.731 31.7132 129.071 32.3132 128.311 32.6999C127.564 33.0866 126.804 33.2799 126.031 33.2799C125.858 33.2799 125.718 33.1932 125.611 33.0199C125.504 32.8599 125.451 32.6599 125.451 32.4199C125.451 32.1666 125.511 31.9599 125.631 31.7999C125.751 31.6399 125.931 31.5599 126.171 31.5599Z" fill="black"/>
<path d="M138.698 33.2799C138.325 33.2799 138.005 33.1466 137.738 32.8799C137.471 32.5999 137.338 32.2732 137.338 31.8999C137.338 31.5266 137.471 31.2066 137.738 30.9399C138.005 30.6732 138.325 30.5399 138.698 30.5399C139.071 30.5399 139.391 30.6732 139.658 30.9399C139.938 31.2066 140.078 31.5266 140.078 31.8999C140.078 32.2732 139.938 32.5999 139.658 32.8799C139.391 33.1466 139.071 33.2799 138.698 33.2799Z" fill="black"/>
<path d="M146.973 33.2799C145.933 33.2799 145.026 33.0732 144.253 32.6599C143.48 32.2466 142.88 31.6732 142.453 30.9399C142.026 30.1932 141.813 29.3199 141.813 28.3199C141.813 27.3332 142 26.4666 142.373 25.7199C142.746 24.9599 143.26 24.3666 143.913 23.9399C144.58 23.4999 145.34 23.2799 146.193 23.2799C146.833 23.2799 147.413 23.4066 147.933 23.6599C148.466 23.8999 148.9 24.2532 149.233 24.7199C149.073 25.2666 148.686 25.6599 148.073 25.8999C147.633 25.2999 147.026 24.9999 146.253 24.9999C145.48 24.9999 144.853 25.2932 144.373 25.8799C143.906 26.4532 143.673 27.2332 143.673 28.2199C143.673 29.2332 143.966 30.0466 144.553 30.6599C145.153 31.2732 146 31.5799 147.093 31.5799C147.266 31.5799 147.406 31.6666 147.513 31.8399C147.633 31.9999 147.693 32.2066 147.693 32.4599C147.693 32.7132 147.626 32.9132 147.493 33.0599C147.373 33.2066 147.2 33.2799 146.973 33.2799Z" fill="black"/>
<path d="M147.001 33.2799C146.814 33.2799 146.667 33.1999 146.561 33.0399C146.441 32.8799 146.381 32.6732 146.381 32.4199C146.381 32.1532 146.447 31.9466 146.581 31.7999C146.714 31.6532 146.887 31.5799 147.101 31.5799C147.914 31.5799 148.654 31.3666 149.321 30.9399C150.001 30.4999 150.554 29.8999 150.981 29.1399C150.941 28.8599 150.921 28.5666 150.921 28.2599C150.921 27.2999 151.127 26.4466 151.541 25.6999C151.954 24.9532 152.514 24.3666 153.221 23.9399C153.941 23.4999 154.747 23.2799 155.641 23.2799C156.534 23.2799 157.334 23.4999 158.041 23.9399C158.747 24.3666 159.301 24.9532 159.701 25.6999C160.114 26.4466 160.321 27.2999 160.321 28.2599C160.321 29.2199 160.114 30.0799 159.701 30.8399C159.301 31.5999 158.747 32.1999 158.041 32.6399C157.347 33.0666 156.547 33.2799 155.641 33.2799C154.787 33.2799 154.021 33.0866 153.341 32.6999C152.661 32.3132 152.114 31.7866 151.701 31.1199C151.141 31.8132 150.454 32.3466 149.641 32.7199C148.841 33.0932 147.961 33.2799 147.001 33.2799ZM155.621 31.5599C156.474 31.5599 157.154 31.2599 157.661 30.6599C158.181 30.0599 158.441 29.2599 158.441 28.2599C158.441 27.7666 158.367 27.3132 158.221 26.8999C157.421 26.8732 156.694 26.7132 156.041 26.4199C155.401 26.1266 154.894 25.7266 154.521 25.2199C153.987 25.4466 153.567 25.8332 153.261 26.3799C152.954 26.9132 152.801 27.5532 152.801 28.2999C152.801 29.2732 153.054 30.0599 153.561 30.6599C154.081 31.2599 154.767 31.5599 155.621 31.5599Z" fill="black"/>
<path d="M164.929 33.1399C164.595 33.1399 164.295 33.0932 164.029 32.9999V26.6199C164.029 25.5399 163.722 24.9999 163.109 24.9999C162.815 24.9999 162.409 25.1266 161.889 25.3799C161.369 25.6332 160.775 25.9932 160.109 26.4599C159.989 26.5399 159.862 26.5799 159.729 26.5799C159.542 26.5799 159.355 26.4732 159.169 26.2599C158.982 26.0466 158.889 25.8199 158.889 25.5799C158.889 25.3532 159.002 25.1666 159.229 25.0199C160.175 24.3932 160.942 23.9466 161.529 23.6799C162.115 23.4132 162.695 23.2799 163.269 23.2799C163.842 23.2799 164.329 23.4466 164.729 23.7799C165.142 24.0999 165.435 24.5466 165.609 25.1199C165.915 24.5332 166.315 24.0799 166.809 23.7599C167.315 23.4399 167.882 23.2799 168.509 23.2799C169.815 23.2799 170.702 23.9532 171.169 25.2999C171.489 24.6599 171.922 24.1666 172.469 23.8199C173.015 23.4599 173.635 23.2799 174.329 23.2799C175.275 23.2799 176.002 23.5799 176.509 24.1799C177.015 24.7799 177.269 25.6266 177.269 26.7199V29.4999C177.269 30.2332 177.362 30.7599 177.549 31.0799C177.749 31.3999 178.062 31.5599 178.489 31.5599C178.635 31.5599 178.795 31.5266 178.969 31.4599C179.142 31.3932 179.322 31.2932 179.509 31.1599C179.735 31.2666 179.922 31.4532 180.069 31.7199C180.215 31.9732 180.282 32.2266 180.269 32.4799C180.055 32.7199 179.782 32.9132 179.449 33.0599C179.115 33.2066 178.755 33.2799 178.369 33.2799H178.349C176.415 33.2799 175.449 32.0932 175.449 29.7199V27.1599C175.449 26.4666 175.322 25.9332 175.069 25.5599C174.815 25.1866 174.455 24.9999 173.989 24.9999C173.282 24.9999 172.722 25.4066 172.309 26.2199C171.909 27.0199 171.709 28.1332 171.709 29.5599V32.9999C171.575 33.0399 171.429 33.0732 171.269 33.0999C171.109 33.1266 170.955 33.1399 170.809 33.1399C170.489 33.1399 170.182 33.0932 169.889 32.9999V27.4399C169.889 26.6532 169.749 26.0532 169.469 25.6399C169.202 25.2132 168.802 24.9999 168.269 24.9999C167.789 24.9999 167.362 25.1932 166.989 25.5799C166.629 25.9532 166.342 26.4866 166.129 27.1799C165.929 27.8599 165.829 28.6532 165.829 29.5599V32.9999C165.695 33.0399 165.549 33.0732 165.389 33.0999C165.229 33.1266 165.075 33.1399 164.929 33.1399Z" fill="black"/>
<path d="M188 30.5C188 28.3086 187.047 27.1051 186.216 26.0544C185.572 25.2406 185 24.5185 185 23.5C185 22.4815 185.572 21.7594 186.216 20.9456C187.047 19.8949 188 18.6914 188 16.5V30.5Z" fill="#03C160"/>
<path d="M188 17.6C188 14.2397 188 12.5595 188.654 11.2761C189.229 10.1471 190.147 9.2292 191.276 8.65396C192.56 8 194.24 8 197.6 8H211.4C214.76 8 216.44 8 217.724 8.65396C218.853 9.2292 219.771 10.1471 220.346 11.2761C221 12.5595 221 14.2397 221 17.6V26.4C221 29.7603 221 31.4405 220.346 32.7239C219.771 33.8529 218.853 34.7708 217.724 35.346C216.44 36 214.76 36 211.4 36H196C193.2 36 191.8 36 190.73 35.455C189.789 34.9757 189.024 34.2108 188.545 33.27C188 32.2004 188 30.8003 188 28V17.6Z" fill="#03C160"/>
</svg>
